<?xml version="1.0" standalone="no"?>
<!DOCTYPE svg PUBLIC "-//W3C//DTD SVG 1.1//EN" "http://www.w3.org/Graphics/SVG/1.1/DTD/svg11.dtd">
<svg t="1539846087482" class="icon" style="" viewBox="0 0 1024 1024" version="1.1" xmlns="http://www.w3.org/2000/svg" p-id="1884" xmlns:xlink="http://www.w3.org/1999/xlink" width="200" height="200"><defs><style type="text/css"></style></defs>
<path d="M0 945.23h945.23V1024H0v-78.77zM0 0h407.077v61.934l-87.923 6.194-20.077 17.96v444.07c0 84.644 18 145.133 54 181.468 36 36.335 95.076 54.502 177.23 54.502 75.693 0 130.5-19.303 164.424-57.909 33.923-38.606 50.884-101.881 50.884-189.829V91.044l-21.461-21.678-90.692-7.432V0h321.923v61.934l-86.539 7.432-19.384 21.678v440.353c0 117.676-29.539 202.938-88.616 255.789-59.077 52.85-154.384 79.276-285.923 79.276-68.77 0-129.115-8.98-181.038-26.942-51.924-17.96-92.654-43.663-122.193-77.108-22.615-26.426-38.654-56.67-48.115-90.734-9.462-34.064-14.192-82.888-14.192-146.475V86.09L89.308 68.128 0 61.934V0z" fill="#666666" p-id="1885"></path>
</svg>
